<?xml version="1.0" encoding="utf-8"?>
<!-- Generator: Adobe Illustrator 25.4.1, SVG Export Plug-In . SVG Version: 6.00 Build 0)  -->
<svg version="1.1" id="Layer_1" xmlns="http://www.w3.org/2000/svg" xmlns:xlink="http://www.w3.org/1999/xlink" x="0px" y="0px"
	 viewBox="0 0 362.2 79.3" style="enable-background:new 0 0 362.2 79.3;" xml:space="preserve">
<style type="text/css">
	.st0{fill:#B3B3B3;}
</style>
<path class="st0" d="M236,49.6l-5.8-13.4l-5.7,13.4l-0.4,0.9h12.3L236,49.6z M234.1,26.4L251.5,66H243l-3.6-8.3h-18.3l-0.3,0.6
	l-3.4,7.7h-8.3l17.6-39.9h7.1L234.1,26.4z M290.7,53.6l-9.1-27.5H275l-9.1,27.5l-8.8-27.5h-8.6l13.9,39.9h6.7l9.1-26.2l9.1,26.2h6.8
	l13.9-39.9h-8.4L290.7,53.6z M322.4,48.9h14.8v-7.3h-14.8v-8.2h21.4v-7.2h-29.4v39.9h30.1v-7.3h-22.2V48.9L322.4,48.9z M354.2,26.2
	V66h8V26.2L354.2,26.2z M151.4,42.2h-18.3V26.2H125v39.9h8.1V49.9h18.3v16.2h8.1V26.2h-8.1V42.2L151.4,42.2z M197,26.1h8.1v22.5
	c0,11.4-6.3,18-17.3,18s-17.1-6.5-17.1-17.7V26.2h8.1v22.6c0,6.7,3.3,10.2,9.1,10.2s9.1-3.5,9.1-10V26.1L197,26.1z"/>
<path class="st0" d="M59.9,61.8c0.1,0.1,0.3,0.1,0.4,0c4.6-2.3,23.9-12.1,31.8-19.9c3.1-2.7,5-6.5,5.3-10.6c0.6-9-8.5-17.4-8.5-17.4
	C77.4,28.5,67.6,44.4,59.7,61.3C59.7,61.5,59.8,61.7,59.9,61.8 M104.1,40.8c0,0-27.4,14.8-41.6,24.3c-0.1,0.1-0.2,0.3-0.2,0.5
	c0,0,0.1,0.3,0.3,0.3c5.1,0,24.3,0,24.8-0.1c1.9-0.1,3.8-0.6,5.6-1.3c4.6-1.8,8.4-5.4,10.4-10C105.3,50.2,105.6,45.3,104.1,40.8
	 M63.2,68.2c-0.2,0-0.3,0.1-0.4,0.3c0,0.2,0,0.3,0.1,0.4c3.1,2.2,12.5,8.8,17,10c0,0,8.4,2.9,15.6-9.6L63.2,68.2L63.2,68.2z
	 M55.6,59.2c0.2,0.1,0.4,0,0.5-0.2c3.1-4.4,17.1-25.2,19.9-37.8c0,0,1.5-6.1,0.1-10.3c-1.6-5-5.6-8.7-10.7-10c0,0-2.4-0.6-5.1-1
	c0,0-9.6,12.3-4.9,58.9C55.3,59,55.4,59.2,55.6,59.2 M44.9,0c-1.4,0.1-5.2,1-5.2,1c-5,1.3-9,5.1-10.6,10c-1.6,4.9,0,10.3,0,10.3
	C31.9,33.9,46,54.8,49,59.2c0.2,0.2,0.4,0.1,0.4,0.1c0.2-0.1,0.3-0.2,0.3-0.4C54.4,12.4,44.8,0,44.9,0 M42.7,65.6
	c0.2-0.3-0.1-0.5-0.1-0.5C28.5,55.6,1,40.9,1,40.9c-3.3,10,2.2,20.8,12.3,24.1c1.6,0.5,3.3,0.8,5,0.9c0.5,0.1,19.2,0,24.2,0
	C42.5,65.8,42.6,65.8,42.7,65.6 M42.2,68.5c-0.1-0.2-0.2-0.3-0.4-0.3L9.5,69.3c3.5,6.2,9.4,11.1,15.5,9.6c4.2-1.1,13.8-7.8,17-10
	C42.3,68.8,42.2,68.6,42.2,68.5 M45.2,61.9c0.1-0.1,0.2-0.3,0.1-0.4C37.5,44.6,27.7,28.6,16.1,14c0,0-9.2,8.7-8.5,17.5
	c0.3,4.1,2.2,7.9,5.3,10.5c8,7.8,27.4,17.7,31.9,19.9C45,62,45.1,61.9,45.2,61.9"/>
</svg>
