<svg xmlns="http://www.w3.org/2000/svg" viewBox="0 0 344.71 36.67"><defs><style>.cls-1{fill:#b3b3b3;}</style></defs><g id="Layer_2" data-name="Layer 2"><g id="Layer_1-2" data-name="Layer 1"><path class="cls-1" d="M0,.58H8V16.3h.16c.79-1.37,1.63-2.63,2.42-3.9L18.63.58h9.86L16.73,15.72l12.4,20.42h-9.4L11,20.79,8,24.54v11.6H0Z"/><path class="cls-1" d="M53.56,21.11H40.47v8.44H55.09v6.59H32.4V.58h22v6.6H40.47v7.38H53.56Z"/><path class="cls-1" d="M66.69,36.14,58.25.58h8.6l2.69,14.67c.79,4.22,1.53,8.81,2.11,12.4h.11c.58-3.85,1.42-8.13,2.32-12.51l3-14.56h8.55l2.85,15c.79,4.16,1.37,8,1.89,11.92h.11c.53-4,1.32-8.13,2.06-12.35L95.45.58h8.18L94.45,36.14H85.74l-3-15.3c-.68-3.59-1.26-6.91-1.68-11h-.11c-.63,4-1.21,7.38-2.06,11L75.5,36.14Z"/><path class="cls-1" d="M148.16,34.51a40,40,0,0,1-11.87,2c-6.49,0-11.19-1.63-14.46-4.8s-5.06-7.7-5-12.93C116.87,7,125.47.21,137.13.21A24.59,24.59,0,0,1,147,2l-1.69,6.44A19.76,19.76,0,0,0,137,6.86c-6.7,0-11.77,3.8-11.77,11.5,0,7.34,4.59,11.66,11.19,11.66a10.93,10.93,0,0,0,4-.52V22.06h-5.48V15.78h13.24Z"/><path class="cls-1" d="M162.72,27l-2.53,9.12h-8.34L162.72.58h10.56l11,35.56h-8.65L172.91,27Zm9-6-2.22-7.54c-.63-2.12-1.27-4.75-1.79-6.86h-.11c-.53,2.11-1,4.8-1.64,6.86L163.88,21Z"/><path class="cls-1" d="M189.05,1.06A69.69,69.69,0,0,1,199.76.32c5.28,0,9,.79,11.51,2.79a9,9,0,0,1,3.27,7.44,9.44,9.44,0,0,1-6.28,8.76v.16c2.48,1,3.85,3.38,4.75,6.65,1.11,4,2.21,8.65,2.9,10h-8.23c-.58-1-1.43-3.9-2.48-8.28s-2.48-5.65-5.75-5.7H197v14h-8Zm8,15.3h3.17c4,0,6.38-2,6.38-5.12,0-3.27-2.22-4.91-5.91-5a20.78,20.78,0,0,0-3.64.26Z"/><path class="cls-1" d="M220.34,1.06A71.19,71.19,0,0,1,231.21.32c6.75,0,11.13,1.21,14.56,3.8,3.7,2.74,6,7.12,6,13.4,0,6.8-2.48,11.5-5.91,14.4-3.75,3.12-9.45,4.59-16.41,4.59a70.72,70.72,0,0,1-9.13-.52Zm8.07,29a15.68,15.68,0,0,0,2.8.15c7.28.06,12-3.95,12-12.45,0-7.38-4.27-11.29-11.19-11.29a16.6,16.6,0,0,0-3.64.32Z"/><path class="cls-1" d="M278.22,21.11H265.14v8.44h14.61v6.59H257.06V.58H279v6.6H265.14v7.38h13.08Z"/><path class="cls-1" d="M285.24,36.14V.58h9.39l7.39,13a103,103,0,0,1,5.8,12.19H308A131.39,131.39,0,0,1,307.3,11V.58h7.38V36.14h-8.44l-7.6-13.71a131.89,131.89,0,0,1-6.17-12.56l-.16.05c.21,4.7.32,9.71.32,15.51V36.14Z"/><path class="cls-1" d="M321.91,27.86a20.49,20.49,0,0,0,8.92,2.22c3.69,0,5.64-1.53,5.64-3.86s-1.68-3.48-6-5c-5.91-2.06-9.76-5.33-9.76-10.5C320.75,4.64,325.82,0,334.21,0a21.8,21.8,0,0,1,9.07,1.79l-1.79,6.49a17,17,0,0,0-7.44-1.68c-3.49,0-5.17,1.58-5.17,3.43,0,2.26,2,3.27,6.59,5,6.28,2.32,9.24,5.59,9.24,10.6,0,6-4.6,11-14.36,11a23.29,23.29,0,0,1-10.08-2.16Z"/></g></g></svg>