<svg xmlns="http://www.w3.org/2000/svg" viewBox="0 0 935.99 269.04"><defs><style>.cls-1{fill:#2b7036;}</style></defs><g id="Layer_2" data-name="Layer 2"><g id="Layer_1-2" data-name="Layer 1"><path class="cls-1" d="M18.18,240.44c0-5.34,4.46-10.24,9.8-10.24a9.28,9.28,0,0,1,8.9,5.79,12.9,12.9,0,0,1,.9,4,9.89,9.89,0,0,1-9.8,9.79,9.51,9.51,0,0,1-9.8-9.35h0M182.49,18.7c5.78,0,10.24,4.45,9.79,10.24h0a9.8,9.8,0,1,1-19.59,0c-.45-5.79,4-10.24,9.8-10.24h0M37.33,213.28V168.75l147.83-50.31a9.69,9.69,0,0,0,6.23-8.91V55.66A28.55,28.55,0,0,0,209.2,19.59C204.3,4.45,188.27-3.12,173.14,1.78s-22.71,20.93-17.82,36.07c2.68,8.46,9.36,14.69,17.82,17.81v47.2L25.31,153.17a9.09,9.09,0,0,0-6.24,8.91v51.2A28.43,28.43,0,0,0,1.71,249.79c4,11.13,14.69,19.15,26.71,19.15a28.53,28.53,0,0,0,28.06-29.39c0-11.58-8-22.26-19.15-26.27"/><path class="cls-1" d="M38.22,28.5a9.8,9.8,0,1,1-9.8-9.8,9.88,9.88,0,0,1,9.8,9.8m67.24,41a10.24,10.24,0,1,1,0,20.48h-.9a9.73,9.73,0,0,1-8.9-11.13,11.85,11.85,0,0,1,3.12-6.23,8,8,0,0,1,6.68-3.12M19.07,55.66v49.87a9.52,9.52,0,0,0,3.57,7.57A7.79,7.79,0,0,0,28,114.88a5.59,5.59,0,0,0,2.67-.45L82.3,96.62a27.4,27.4,0,0,0,22.26,11.13A28.79,28.79,0,0,0,134,79.7c.45-15.58-12.47-28.94-28-29.39A28.81,28.81,0,0,0,76.51,78.37v.44L36.88,92.17v-37A28.74,28.74,0,0,0,54.25,18.26C50.69,8,40,.45,28,0A28.72,28.72,0,0,0,.37,29.39a27.85,27.85,0,0,0,18.7,26.27"/><path class="cls-1" d="M172.24,240.44a13,13,0,0,1,.9-4c2.22-4.89,8-7.56,12.91-5.34a10.39,10.39,0,0,1,5.34,5.34,12.94,12.94,0,0,1,.89,4,9.88,9.88,0,0,1-9.79,9.8c-5.35,0-10.25-4.45-10.25-9.8m-66.78-38.29a10.24,10.24,0,1,1,0-20.48h.89a10.18,10.18,0,0,1,8.9,10.24,12.6,12.6,0,0,1-3.12,7.57,10.68,10.68,0,0,1-6.67,2.67m85.93,11.13V165.64a9.52,9.52,0,0,0-3.56-7.57,8.65,8.65,0,0,0-8-1.34l-51.65,17.81a27.41,27.41,0,0,0-22.26-11.13,28.73,28.73,0,1,0-1.34,57.44c15.59.45,28.95-12.47,29.39-28v-.45L173.58,179v34.73a28.44,28.44,0,1,0,18.26,53.87c15.13-4.9,22.7-20.92,17.81-36.06-3.57-8.91-9.8-15.59-18.26-18.26"/><path class="cls-1" d="M292,55.89a5.33,5.33,0,0,1,2.21-4.15,9.19,9.19,0,0,1,6.09-1.86A8.54,8.54,0,0,1,306,51.74a5.34,5.34,0,0,1,2.22,4.15v63.52H337.7c2.58,0,4.54.61,5.88,1.85a6.52,6.52,0,0,1,2,5,6.21,6.21,0,0,1-2,4.79A8.41,8.41,0,0,1,337.7,133H299.48a8.88,8.88,0,0,1-5.54-2,5.32,5.32,0,0,1-1.93-4Z"/><path class="cls-1" d="M424.45,53a6.57,6.57,0,0,1,2,5.05,6.23,6.23,0,0,1-2,4.79,8.38,8.38,0,0,1-5.89,1.86h-31V84.77h20.77q4,0,6,1.85a6.54,6.54,0,0,1,2,5,6.21,6.21,0,0,1-2,4.79q-2,1.86-6,1.86H387.55v21.09h31c2.59,0,4.55.61,5.89,1.85a6.55,6.55,0,0,1,2,5,6.23,6.23,0,0,1-2,4.79,8.42,8.42,0,0,1-5.89,1.85H379.65a9.29,9.29,0,0,1-6-1.85,5.31,5.31,0,0,1-2.28-4.15V57.17A5.33,5.33,0,0,1,373.63,53a9.29,9.29,0,0,1,6-1.85h38.91A8.42,8.42,0,0,1,424.45,53Z"/><path class="cls-1" d="M483.64,134.23a36,36,0,0,1-5.12-.45,54.63,54.63,0,0,1-6.37-1.34,61,61,0,0,1-6.58-2.17,32.21,32.21,0,0,1-5.89-3,17.05,17.05,0,0,1-4.29-3.89,7.79,7.79,0,0,1-1.66-4.86q0-6,7.2-6a8.81,8.81,0,0,1,4.15,1.22,26.46,26.46,0,0,1,3.33,2.36,21.4,21.4,0,0,0,6.64,3.64,25.88,25.88,0,0,0,9.14,1.6q5.54,0,8.73-2.23t3.18-7.1a8.54,8.54,0,0,0-3-6.71,29.8,29.8,0,0,0-7.54-4.66c-3.05-1.36-6.3-2.69-9.76-4a52.14,52.14,0,0,1-9.77-4.8,25.76,25.76,0,0,1-7.54-7.15,18.7,18.7,0,0,1-3-10.93,23.58,23.58,0,0,1,1.94-9.71A21.86,21.86,0,0,1,463,56.53a24.76,24.76,0,0,1,8.86-4.92,38.16,38.16,0,0,1,11.91-1.73,41.13,41.13,0,0,1,12.11,1.6,34.58,34.58,0,0,1,8.73,3.9A19.82,19.82,0,0,1,510,60.17a7.73,7.73,0,0,1,1.8,4.15,7.13,7.13,0,0,1-1.59,4.8c-1.07,1.23-2.84,1.85-5.34,1.85a8.41,8.41,0,0,1-3.94-.9,21.77,21.77,0,0,1-3.26-2,30.2,30.2,0,0,0-5.12-2.94,21.65,21.65,0,0,0-9.28-1.66,12.89,12.89,0,0,0-8.17,2.49,8.63,8.63,0,0,0-3.18,7.22,8,8,0,0,0,3,6.52A30.56,30.56,0,0,0,482.32,84q4.5,1.92,9.77,3.84a49.71,49.71,0,0,1,9.76,4.79,26,26,0,0,1,7.48,7.22q3,4.35,3,11.25,0,10.73-7.61,16.93T483.64,134.23Z"/><path class="cls-1" d="M543.46,55.89a5.3,5.3,0,0,1,2.28-4.15,9.23,9.23,0,0,1,6-1.86,8.68,8.68,0,0,1,5.13,1.47,6.41,6.41,0,0,1,2.63,3.39L596.77,105V55.89A5.33,5.33,0,0,1,599,51.74a9.19,9.19,0,0,1,6.09-1.86,8.26,8.26,0,0,1,5.61,1.86,5.4,5.4,0,0,1,2.15,4.15v72.33a5.44,5.44,0,0,1-2.15,4.16,8.3,8.3,0,0,1-5.61,1.85,10.46,10.46,0,0,1-5.05-1.09,6.25,6.25,0,0,1-2.84-2.87l-.41-.64L559.66,79.91v48.31a5.44,5.44,0,0,1-2.15,4.16,8.52,8.52,0,0,1-5.75,1.85,9.29,9.29,0,0,1-6-1.85,5.33,5.33,0,0,1-2.28-4.16Z"/><path class="cls-1" d="M647.44,55.89a5.34,5.34,0,0,1,2.22-4.15,9.16,9.16,0,0,1,6.09-1.86,8.54,8.54,0,0,1,5.68,1.86,5.36,5.36,0,0,1,2.21,4.15V128.1a5.37,5.37,0,0,1-2.21,4.15,8.59,8.59,0,0,1-5.68,1.85,9.21,9.21,0,0,1-6.09-1.85,5.35,5.35,0,0,1-2.22-4.15Z"/><path class="cls-1" d="M696.6,80.94a34.64,34.64,0,0,1,2.07-12,27.43,27.43,0,0,1,6.23-9.91,30.42,30.42,0,0,1,10.25-6.71,36.72,36.72,0,0,1,14-2.49,41.15,41.15,0,0,1,10,1.15,32.29,32.29,0,0,1,8,3.07,17.38,17.38,0,0,1,5.26,4.34,8.26,8.26,0,0,1,1.87,5.12,4.93,4.93,0,0,1-1.66,4,5.82,5.82,0,0,1-3.88,1.4,13.7,13.7,0,0,1-4.15-.57,20.06,20.06,0,0,1-4.16-2,27.74,27.74,0,0,0-4.78-2.17,20.13,20.13,0,0,0-6.57-.9,17,17,0,0,0-11.43,4.09Q712.8,71.49,712.8,80V104.2q0,8.56,4.77,12.59a17.19,17.19,0,0,0,11.43,4,29.26,29.26,0,0,0,6.44-.57,20.18,20.18,0,0,0,4.63-1.73c1-.59,1.9-1.09,2.63-1.47a16.25,16.25,0,0,1,2-.89,9.11,9.11,0,0,1,1.87-.45,18.19,18.19,0,0,1,2.22-.13,4.83,4.83,0,0,1,5.4,5.11,8.21,8.21,0,0,1-1.87,5.11,16.58,16.58,0,0,1-5.26,4.29,34.41,34.41,0,0,1-8,3,40.66,40.66,0,0,1-10,1.15,36.72,36.72,0,0,1-14-2.49A30.27,30.27,0,0,1,704.9,125a27.41,27.41,0,0,1-6.23-9.84,34.5,34.5,0,0,1-2.07-12Z"/><path class="cls-1" d="M784.1,55.89a5.34,5.34,0,0,1,2.22-4.15,9.19,9.19,0,0,1,6.09-1.86,8.54,8.54,0,0,1,5.68,1.86,5.33,5.33,0,0,1,2.21,4.15v30.8h4.3l26.58-34.64a6.59,6.59,0,0,1,2.15-1.47,8,8,0,0,1,2.91-.63,11.1,11.1,0,0,1,3.18.32,8.21,8.21,0,0,1,3,1.4,6,6,0,0,1,2.42,5.18,6.68,6.68,0,0,1-2,4.66L818,92.06l28.11,31.05a4.67,4.67,0,0,1,1.38,4.41,7.8,7.8,0,0,1-3.18,4.92,8.55,8.55,0,0,1-5.68,1.73,6.75,6.75,0,0,1-4.71-2L805.43,99.72H800.3v28.5a5.36,5.36,0,0,1-2.21,4.16,8.59,8.59,0,0,1-5.68,1.85,9.25,9.25,0,0,1-6.09-1.85,5.37,5.37,0,0,1-2.22-4.16Z"/><path class="cls-1" d="M892.94,102.41l-25.06-42.3A4.61,4.61,0,0,1,867,55.7a7.08,7.08,0,0,1,3.61-4.29,9.71,9.71,0,0,1,6.23-1.34,7.14,7.14,0,0,1,4.57,2.24l19.93,36.17,20.08-36.17A7.14,7.14,0,0,1,926,50.07a9.73,9.73,0,0,1,6.23,1.34,6.75,6.75,0,0,1,3.53,4.29,5,5,0,0,1-.76,4.41l-26,43.7V128.1a5.42,5.42,0,0,1-2.15,4.15,8.29,8.29,0,0,1-5.6,1.85,9.26,9.26,0,0,1-6.1-1.85,5.37,5.37,0,0,1-2.21-4.15Zm9.83-61.47a4.94,4.94,0,0,1-3.81-.32,6.7,6.7,0,0,1-3.25-3,4.6,4.6,0,0,1-.35-4A4.3,4.3,0,0,1,897.65,31l19.52-9.59a6.17,6.17,0,0,1,5.4.19,8.56,8.56,0,0,1,3.67,3.65,7.4,7.4,0,0,1,.69,4.85,4.93,4.93,0,0,1-3.39,3.71Z"/><path class="cls-1" d="M291.73,162.17A5.33,5.33,0,0,1,294,158a9.32,9.32,0,0,1,6-1.85h19.52A60.45,60.45,0,0,1,335.35,158,27.7,27.7,0,0,1,345.8,163a19.19,19.19,0,0,1,5.75,7.79,27.56,27.56,0,0,1,1.8,10.16v.9A19.05,19.05,0,0,1,350.09,193q-3.25,4.66-11.42,7.48l15.37,29a4,4,0,0,1,.41,4.41,9.45,9.45,0,0,1-4.29,4.41,8.92,8.92,0,0,1-6,.7,6.51,6.51,0,0,1-4.16-2.62l-15.5-30.67a22,22,0,0,1-2.36.12H307.93v27.61a5.07,5.07,0,0,1-2.15,4,8.83,8.83,0,0,1-5.74,1.73,8.72,8.72,0,0,1-6-2,5.89,5.89,0,0,1-2.28-4.35Zm16.2,6.77v24.67h11.63q9.42,0,13.5-2.94a9,9,0,0,0,4.09-7.54V180.7a10.3,10.3,0,0,0-4.09-8.63q-4.08-3.13-13.5-3.13Z"/><path class="cls-1" d="M437.05,158a6.57,6.57,0,0,1,2,5.05,6.24,6.24,0,0,1-2,4.79,8.38,8.38,0,0,1-5.89,1.86h-31v20.06h20.77q4,0,6,1.85a6.54,6.54,0,0,1,2,5,6.21,6.21,0,0,1-2,4.79q-2,1.86-6,1.86H400.15v21.09h31c2.59,0,4.55.61,5.89,1.85a6.56,6.56,0,0,1,2,5.05,6.24,6.24,0,0,1-2,4.79,8.42,8.42,0,0,1-5.89,1.85H392.25a9.29,9.29,0,0,1-6-1.85A5.31,5.31,0,0,1,384,232V162.17a5.33,5.33,0,0,1,2.28-4.16,9.29,9.29,0,0,1,6-1.85h38.91A8.42,8.42,0,0,1,437.05,158Z"/><path class="cls-1" d="M469.52,162.17A5.33,5.33,0,0,1,471.8,158a9.29,9.29,0,0,1,6-1.85H496a49.74,49.74,0,0,1,15.1,2,29.46,29.46,0,0,1,10.52,5.69,22.07,22.07,0,0,1,6.09,8.5,28.06,28.06,0,0,1,1.94,10.48v1.41a24.82,24.82,0,0,1-1.8,9.33,20.47,20.47,0,0,1-5.82,7.92,30.46,30.46,0,0,1-10.38,5.56A50.45,50.45,0,0,1,496,209.2H485.72v24a5.44,5.44,0,0,1-2.15,4.16,8.52,8.52,0,0,1-5.75,1.85,8.4,8.4,0,0,1-6-2.17,6.25,6.25,0,0,1-2.28-4.48Zm16.2,6.77v28H496a27.11,27.11,0,0,0,7.9-1,17.35,17.35,0,0,0,5.47-2.69,10.66,10.66,0,0,0,3.18-3.83,10.31,10.31,0,0,0,1-4.48V182a12,12,0,0,0-4.16-9.27q-4.15-3.77-13.43-3.77Z"/><path class="cls-1" d="M559.38,188.11a40.11,40.11,0,0,1,2.08-13.1,28,28,0,0,1,6.37-10.54,29.64,29.64,0,0,1,10.87-7,42.76,42.76,0,0,1,15.57-2.56A43.26,43.26,0,0,1,610,157.44a30.44,30.44,0,0,1,10.94,7A27.89,27.89,0,0,1,627.37,175a40.37,40.37,0,0,1,2.07,13.1V206a40.29,40.29,0,0,1-2.07,13.1,28,28,0,0,1-6.44,10.55,30.42,30.42,0,0,1-10.94,7,43.26,43.26,0,0,1-15.72,2.56,42.76,42.76,0,0,1-15.57-2.56,29.62,29.62,0,0,1-10.87-7,28.1,28.1,0,0,1-6.37-10.55,40,40,0,0,1-2.08-13.1Zm15.92,18q0,10.49,5.13,14.89t13.84,4.41q9,0,14-4.41t5-14.89v-18q0-10.49-5-14.89t-14-4.41q-8.71,0-13.84,4.41t-5.13,14.89Z"/><path class="cls-1" d="M662.4,162.17a5.33,5.33,0,0,1,2.28-4.16,9.29,9.29,0,0,1,6-1.85h19.53A60.37,60.37,0,0,1,706,158,27.75,27.75,0,0,1,716.47,163a19.16,19.16,0,0,1,5.74,7.79A27.36,27.36,0,0,1,724,181v.9A19,19,0,0,1,720.76,193q-3.25,4.66-11.43,7.48l15.37,29a4,4,0,0,1,.42,4.41,9.45,9.45,0,0,1-4.29,4.41,9,9,0,0,1-6,.7,6.49,6.49,0,0,1-4.15-2.62l-15.51-30.67a21.85,21.85,0,0,1-2.35.12H678.6v27.61a5.07,5.07,0,0,1-2.15,4,8.86,8.86,0,0,1-5.75,1.73,8.69,8.69,0,0,1-6-2,5.89,5.89,0,0,1-2.28-4.35Zm16.2,6.77v24.67h11.63q9.4,0,13.5-2.94a8.94,8.94,0,0,0,4.08-7.54V180.7a10.29,10.29,0,0,0-4.08-8.63q-4.1-3.13-13.5-3.13Z"/><path class="cls-1" d="M804.6,156.16c2.68,0,4.68.62,6,1.85a6.54,6.54,0,0,1,2,5.05,6.21,6.21,0,0,1-2,4.79c-1.34,1.24-3.34,1.86-6,1.86H786.46v63.51a5.46,5.46,0,0,1-2.14,4.16,8.54,8.54,0,0,1-5.75,1.85,9.21,9.21,0,0,1-6.09-1.85,5.37,5.37,0,0,1-2.22-4.16V169.71H753.92a8.45,8.45,0,0,1-5.74-1.86,6,6,0,0,1-2.15-4.79,6.31,6.31,0,0,1,2.15-5.05,8.5,8.5,0,0,1,5.74-1.85Z"/></g></g></svg>