<?xml version="1.0" encoding="utf-8"?>
<!-- Generator: Adobe Illustrator 26.0.3, SVG Export Plug-In . SVG Version: 6.00 Build 0)  -->
<svg version="1.1" id="Layer_1" xmlns="http://www.w3.org/2000/svg" xmlns:xlink="http://www.w3.org/1999/xlink" x="0px" y="0px"
	 viewBox="0 0 785 269" style="enable-background:new 0 0 785 269;" xml:space="preserve">
<style type="text/css">
	.st0{fill:#2B7036;}
</style>
<g>
	<path class="st0" d="M18.4,241c0-1.4,0.3-2.8,0.9-4.2c2.2-5.1,8-7.4,13.1-5.3c2.4,1,4.2,2.9,5.3,5.3c0.6,1.3,0.9,2.7,0.9,4.2
		c1,5.6-2.7,10.8-8.3,11.8c-5.6,1-10.8-2.7-11.8-8.3C18.2,243.4,18.2,242.2,18.4,241 M183.5,17.9c5.6,0,10.2,4.6,10.2,10.2
		s-4.6,10.2-10.2,10.2c-4-0.1-7.6-2.4-9.2-6.1c-0.6-1.3-0.9-2.7-0.9-4.2c0-5.6,4.6-10.2,10.2-10.2 M37.6,213.7v-44.8l148.8-50.6
		c3.8-1.3,6.3-4.9,6.3-8.8V55.4c14.8-5.1,22.8-21.2,17.7-36.1c-5.1-14.8-21.2-22.8-36.1-17.7s-22.8,21.2-17.7,36.1
		c2.8,8.3,9.4,14.9,17.7,17.7v47.4L25.5,153.4c-3.8,1.3-6.3,4.9-6.3,8.8v51.5C4.4,218.8-3.5,235,1.5,249.8
		c5.1,14.9,21.2,22.8,36.1,17.8s22.8-21.2,17.8-36.1C52.5,223.1,46,216.6,37.6,213.7"/>
	<path class="st0" d="M38.6,28.1c0,5.6-4.6,10.2-10.2,10.2s-10.2-4.6-10.2-10.2s4.6-10.2,10.2-10.2c5.5-0.1,10.1,4.3,10.2,9.9
		C38.6,27.9,38.6,28,38.6,28.1 M106,69.2c5.6,0,10.2,4.6,10.2,10.2s-4.6,10.2-10.2,10.2h-1c-5.6-0.6-9.7-5.6-9.1-11.2
		c0.3-2.5,1.4-4.8,3.3-6.5C101.1,70.1,103.5,69.2,106,69.2 M19.3,55.6v50.1c0,3,1.4,5.8,3.8,7.6c1.6,1.1,3.4,1.7,5.4,1.7
		c1,0,2-0.2,2.9-0.5l52.1-17.7c5.3,7.1,13.7,11.3,22.6,11.4c16,0.2,29.1-12.5,29.3-28.4c0.2-16-12.5-29.1-28.4-29.3
		c-16-0.2-29.1,12.5-29.3,28.4c0,0.1,0,0.2,0,0.3L37.6,92.8V55.4c14.9-5.1,22.8-21.2,17.8-36.1C50.3,4.4,34.2-3.5,19.3,1.5
		S-3.5,22.7,1.5,37.6c2.8,8.4,9.4,14.9,17.8,17.8"/>
	<path class="st0" d="M173.5,241c0-1.4,0.3-2.8,0.9-4.2c2.2-5.1,8-7.4,13.1-5.3c2.4,1,4.2,2.9,5.3,5.3c0.6,1.3,0.9,2.7,0.9,4.2
		c1,5.6-2.7,10.8-8.3,11.8c-5.6,1-10.8-2.7-11.8-8.3C173.3,243.4,173.3,242.2,173.5,241 M106,202.5c-5.6,0-10.2-4.6-10.2-10.2
		c0-5.6,4.6-10.2,10.2-10.2h1c5.2,0.6,9.1,5,9.1,10.2c0,2.9-1.3,5.6-3.4,7.5c-1.8,1.7-4.3,2.7-6.8,2.7 M192.6,213.7v-47.6
		c0-3-1.4-5.8-3.8-7.6c-2.4-1.8-5.5-2.2-8.3-1.3L128.4,175c-5.2-7.2-13.5-11.5-22.4-11.7c-15.9-0.3-29.1,12.5-29.4,28.4
		c-0.3,15.9,12.5,29.1,28.4,29.4c15.9,0.3,29.1-12.5,29.4-28.4c0-0.1,0-0.2,0-0.3l40-13.6v34.8c-14.9,5.1-22.8,21.2-17.8,36.1
		c5.1,14.9,21.2,22.8,36.1,17.8c14.9-5.1,22.8-21.2,17.8-36.1c-2.8-8.4-9.4-14.9-17.8-17.8"/>
	<path class="st0" d="M299.3,56.1c1,1,1.6,2.4,1.5,3.8c0,1.4-0.5,2.7-1.5,3.7c-1.3,1-2.9,1.5-4.5,1.4h-22.6v16.3h16
		c1.6-0.1,3.2,0.4,4.5,1.4c1,1,1.6,2.4,1.5,3.8c0.1,1.4-0.5,2.7-1.5,3.6c-1.3,1-2.9,1.5-4.5,1.4h-16v21.8c0,1.2-0.6,2.4-1.6,3.2
		c-1.2,1-2.8,1.5-4.4,1.4c-1.6,0.1-3.3-0.4-4.6-1.4c-1-0.7-1.7-1.9-1.7-3.2V59.2c0.1-1.3,0.7-2.4,1.7-3.2c1.3-1,2.9-1.5,4.6-1.4
		h28.6C296.4,54.5,298,55,299.3,56.1z"/>
	<path class="st0" d="M319.4,79c0-3.4,0.5-6.8,1.6-10c1-3,2.7-5.7,4.9-8c2.3-2.4,5.1-4.2,8.3-5.4c3.8-1.4,7.8-2,11.9-1.9
		c4.1-0.1,8.2,0.6,12,1.9c3.1,1.2,6,3,8.3,5.4c2.2,2.3,3.9,5,4.9,8c1.1,3.2,1.6,6.6,1.6,10v13.6c0,3.4-0.5,6.8-1.6,10
		c-1,3-2.7,5.8-4.9,8c-2.4,2.4-5.2,4.2-8.3,5.4c-3.9,1.4-7.9,2-12,1.9c-4,0.1-8.1-0.6-11.9-1.9c-3.1-1.2-5.9-3-8.3-5.4
		c-2.2-2.3-3.9-5-4.9-8c-1.1-3.2-1.6-6.6-1.6-10L319.4,79z M331.5,92.6c-0.4,4.2,1,8.3,3.9,11.4c6.4,4.5,14.9,4.5,21.2,0
		c2.8-3.1,4.2-7.2,3.8-11.4V79c0.4-4.2-1-8.3-3.8-11.4c-6.4-4.5-14.9-4.5-21.2,0c-2.9,3-4.3,7.2-3.9,11.4V92.6z"/>
	<path class="st0" d="M397.9,59.2c0.1-1.3,0.7-2.4,1.7-3.2c1.3-1,2.9-1.5,4.6-1.4h14.9c4.1-0.1,8.1,0.4,12,1.4c2.9,0.7,5.6,2,8,3.8
		c1.9,1.6,3.4,3.6,4.3,5.9c0.9,2.5,1.4,5.1,1.4,7.8v0.7c0.1,3-0.8,6-2.5,8.5c-2.2,2.8-5.2,4.8-8.6,5.7l11.7,22.1
		c0.8,1,0.9,2.3,0.3,3.4c-0.7,1.5-1.9,2.7-3.4,3.4c-1.4,0.7-3,0.9-4.6,0.5c-1.3-0.2-2.4-1-3.2-2L423,92.5c-0.6,0-1.2,0-1.8,0h-10.9
		v21c0,1.2-0.6,2.4-1.6,3.1c-1.3,0.9-2.8,1.4-4.4,1.3c-1.7,0.1-3.3-0.5-4.6-1.6c-1.1-0.8-1.7-2.1-1.7-3.4L397.9,59.2z M410.3,64.4
		v18.8h8.9c3.5,0.3,7.1-0.5,10.2-2.2c1.9-1.3,3.1-3.4,3.1-5.7v-1.9c0.1-2.6-1-5-3.1-6.6c-3.1-1.8-6.6-2.7-10.2-2.4H410.3z"/>
	<path class="st0" d="M508.7,56.1c1,1,1.6,2.4,1.5,3.8c0,1.4-0.5,2.7-1.5,3.7c-1.3,1-2.9,1.5-4.5,1.4h-23.6v15.3h15.9
		c1.6-0.1,3.3,0.4,4.6,1.4c1,1,1.6,2.4,1.5,3.8c0,1.4-0.5,2.7-1.5,3.7c-1.3,1-2.9,1.5-4.6,1.4h-15.9v16.1h23.6
		c1.6-0.1,3.2,0.4,4.5,1.4c1,1,1.6,2.4,1.5,3.8c0.1,1.4-0.5,2.8-1.5,3.7c-1.3,1-2.9,1.5-4.5,1.4h-29.7c-1.7,0.1-3.3-0.4-4.6-1.4
		c-1-0.7-1.7-1.9-1.7-3.2V59.2c0.1-1.3,0.7-2.4,1.7-3.2c1.3-1,2.9-1.5,4.6-1.4h29.7C505.9,54.5,507.5,55,508.7,56.1z"/>
	<path class="st0" d="M553.9,118c-1.3,0-2.6-0.1-3.9-0.3c-1.6-0.2-3.3-0.6-4.9-1c-1.7-0.4-3.4-1-5-1.7c-1.6-0.6-3.1-1.4-4.5-2.3
		c-1.3-0.8-2.4-1.8-3.4-3c-0.8-1.1-1.3-2.4-1.3-3.7c0-3.1,1.8-4.6,5.5-4.6c1.1,0,2.2,0.4,3.2,1c0.9,0.5,1.8,1.1,2.6,1.8
		c1.5,1.2,3.2,2.1,5.1,2.8c2.2,0.8,4.5,1.2,6.8,1.2c2.4,0.2,4.8-0.4,6.8-1.7c1.7-1.3,2.6-3.3,2.4-5.4c0-2-0.8-3.8-2.2-5.1
		c-1.8-1.4-3.7-2.6-5.8-3.4c-2.3-1.1-4.8-2-7.4-3c-2.6-0.9-5.1-2.2-7.5-3.6c-2.3-1.4-4.2-3.3-5.7-5.5c-1.6-2.5-2.4-5.4-2.3-8.3
		c0-2.5,0.6-5,1.6-7.3c1-2.2,2.4-4.2,4.3-5.7c2-1.7,4.3-3,6.8-3.8c2.9-0.9,6-1.3,9.1-1.3c3.1-0.1,6.2,0.4,9.3,1.2
		c2.3,0.7,4.6,1.7,6.6,3c1.6,1,3,2.2,4.1,3.6c0.7,0.9,1.2,2,1.4,3.2c0.1,1.3-0.4,2.6-1.2,3.7c-1.1,1-2.6,1.6-4,1.4
		c-1.1,0-2.1-0.2-3-0.7c-0.9-0.4-1.7-0.9-2.5-1.5c-1.2-0.9-2.5-1.6-3.9-2.2c-2.2-0.9-4.7-1.4-7.1-1.3c-2.2-0.1-4.4,0.6-6.2,1.9
		c-1.7,1.3-2.6,3.4-2.4,5.5c-0.1,1.9,0.8,3.8,2.3,5c1.7,1.4,3.6,2.5,5.7,3.4c2.3,1,4.8,1.9,7.5,2.9c2.6,0.9,5.1,2.1,7.5,3.6
		c2.2,1.4,4.1,3.2,5.6,5.4c1.6,2.6,2.4,5.6,2.2,8.6c0.2,5-1.9,9.8-5.8,12.9C565.3,116.7,559.6,118.3,553.9,118z"/>
	<path class="st0" d="M640,54.6c1.7-0.1,3.3,0.4,4.6,1.4c1,1,1.6,2.4,1.5,3.8c0,1.4-0.5,2.7-1.5,3.7c-1.3,1-2.9,1.5-4.6,1.4h-13.8
		v48.4c0,1.2-0.6,2.4-1.6,3.2c-1.3,1-2.8,1.5-4.4,1.4c-1.7,0.1-3.3-0.4-4.7-1.4c-1-0.7-1.6-1.9-1.7-3.2V65h-12.5
		c-1.6,0.1-3.1-0.4-4.4-1.4c-1.1-0.9-1.7-2.3-1.7-3.7c-0.1-1.5,0.5-2.9,1.7-3.8c1.2-1,2.8-1.5,4.4-1.4H640z"/>
	<path class="st0" d="M666.1,59.2c0.1-1.3,0.7-2.4,1.7-3.2c1.3-1,2.9-1.5,4.6-1.4h14.9c4.1-0.1,8.1,0.4,12,1.4c2.9,0.7,5.6,2,8,3.8
		c1.9,1.6,3.4,3.6,4.4,5.9c1,2.5,1.4,5.1,1.4,7.8v0.7c0.1,3-0.8,6-2.5,8.5c-2.2,2.8-5.2,4.8-8.6,5.7l11.7,22.1
		c0.8,1,0.9,2.3,0.3,3.4c-0.7,1.5-1.9,2.7-3.4,3.4c-1.4,0.7-3,0.9-4.5,0.5c-1.3-0.2-2.4-0.9-3.2-2l-11.8-23.4c-0.6,0-1.2,0-1.8,0
		h-10.9v21c0,1.2-0.6,2.4-1.6,3.1c-1.3,0.9-2.8,1.4-4.4,1.3c-1.7,0.1-3.3-0.5-4.6-1.6c-1.1-0.8-1.7-2.1-1.7-3.4L666.1,59.2z
		 M678.5,64.4v18.8h8.8c3.5,0.3,7.1-0.5,10.2-2.2c2-1.3,3.1-3.4,3.1-5.7v-1.9c0.1-2.6-1.1-5-3.1-6.6c-3.1-1.8-6.6-2.7-10.2-2.4
		H678.5z"/>
	<path class="st0" d="M750.8,93.7l-19.1-32.3c-0.8-0.9-1.1-2.2-0.6-3.4c0.4-1.5,1.4-2.7,2.8-3.4c1.4-0.9,3.1-1.2,4.8-1
		c1.3,0.2,2.5,0.8,3.4,1.7l15.2,27.6l15.3-27.6c0.9-0.9,2.1-1.5,3.4-1.7c1.7-0.2,3.3,0.1,4.8,1c1.3,0.7,2.3,1.9,2.7,3.4
		c0.4,1.2,0.1,2.4-0.6,3.4l-19.5,33.3v18.5c0,1.3-0.7,2.4-1.7,3.2c-1.2,1-2.7,1.5-4.3,1.4c-1.7,0.1-3.3-0.4-4.7-1.4
		c-1-0.7-1.6-1.9-1.7-3.2L750.8,93.7z"/>
	<path class="st0" d="M259.7,156.5c0.1-1.3,0.7-2.4,1.7-3.2c1.3-1,2.9-1.5,4.6-1.4h14.9c4-0.1,8.1,0.4,12,1.4c2.9,0.7,5.6,2,8,3.8
		c2,1.6,3.4,3.8,4.3,6.2c0.9,2.5,1.4,5.1,1.4,7.7v0.7c0.1,3-0.8,6-2.5,8.5c-2.2,2.8-5.3,4.8-8.7,5.7l11.7,22.1
		c0.8,1,0.9,2.3,0.3,3.4c-0.7,1.5-1.9,2.7-3.4,3.4c-1.4,0.7-3,0.9-4.6,0.5c-1.3-0.2-2.4-0.9-3.2-2L284.5,190c-0.6,0-1.2,0-1.8,0
		h-10.9V211c0,1.2-0.6,2.4-1.6,3.1c-2.7,1.8-6.3,1.8-9-0.2c-1.1-0.8-1.7-2.1-1.7-3.4L259.7,156.5z M272.1,161.7v18.8h8.9
		c3.5,0.3,7.1-0.5,10.2-2.2c2-1.3,3.1-3.4,3.1-5.7v-1.7c0.1-2.6-1.1-5-3.1-6.6c-3.1-1.8-6.6-2.7-10.2-2.4L272.1,161.7z"/>
	<path class="st0" d="M370.5,153.5c1,1,1.6,2.4,1.5,3.8c0,1.4-0.5,2.7-1.5,3.7c-1.3,1-2.9,1.5-4.5,1.4h-23.6v15.3h15.8
		c1.7-0.1,3.3,0.4,4.6,1.4c1,1,1.6,2.4,1.5,3.8c0.1,1.4-0.5,2.7-1.5,3.6c-1.3,1-2.9,1.6-4.6,1.4h-15.8v16.1H366
		c1.6-0.1,3.2,0.4,4.5,1.4c1,1,1.6,2.4,1.5,3.8c0.1,1.4-0.5,2.7-1.5,3.6c-1.3,1-2.9,1.5-4.5,1.4h-29.7c-1.7,0.1-3.3-0.4-4.6-1.4
		c-1.1-0.7-1.7-1.9-1.7-3.2v-53.4c0.1-1.3,0.7-2.4,1.7-3.2c1.3-1,2.9-1.5,4.6-1.4H366C367.6,151.9,369.2,152.4,370.5,153.5z"/>
	<path class="st0" d="M395.2,156.5c0.1-1.3,0.7-2.4,1.7-3.2c1.3-1,2.9-1.5,4.6-1.4h13.8c3.9-0.1,7.8,0.4,11.5,1.6
		c2.9,0.9,5.7,2.3,8,4.3c2.1,1.7,3.7,4,4.7,6.5c1,2.5,1.5,5.2,1.5,8v1.2c0,2.4-0.5,4.9-1.4,7.1c-1,2.3-2.5,4.4-4.4,6.1
		c-2.3,1.9-5,3.3-7.9,4.2c-3.9,1.2-7.9,1.7-11.9,1.6h-7.8V211c0,1.2-0.6,2.4-1.6,3.2c-2.7,2-6.4,1.9-9-0.2c-1-0.8-1.7-2.1-1.7-3.4
		L395.2,156.5z M407.6,161.7V183h7.8c2,0,4.1-0.2,6-0.7c1.5-0.4,2.9-1.1,4.2-2.1c1-0.8,1.9-1.8,2.4-2.9c0.5-1.1,0.8-2.2,0.8-3.4
		v-2.2c0-2.7-1.1-5.3-3.2-7c-2.9-2.2-6.6-3.2-10.2-2.9L407.6,161.7z"/>
	<path class="st0" d="M463.8,176.5c0-3.4,0.5-6.8,1.6-10c1-3,2.7-5.7,4.9-8c2.3-2.3,5.1-4.2,8.2-5.3c3.8-1.4,7.8-2,11.9-1.9
		c4.1-0.1,8.1,0.6,12,1.9c3.1,1.2,6,3,8.3,5.4c2.2,2.3,3.9,5,4.9,8c1.1,3.2,1.6,6.6,1.6,10v13.6c0,3.4-0.5,6.8-1.6,10
		c-1,3-2.7,5.8-4.9,8.1c-2.4,2.4-5.2,4.2-8.3,5.3c-3.8,1.4-7.9,2.1-12,2c-4,0.1-8.1-0.6-11.9-2c-3.1-1.1-6-3-8.3-5.3
		c-2.2-2.3-3.9-5.1-4.9-8.1c-1.1-3.2-1.6-6.6-1.6-10L463.8,176.5z M476,190.1c-0.4,4.2,1,8.3,3.9,11.3c3,2.4,6.8,3.6,10.6,3.4
		c3.8,0.2,7.6-1,10.6-3.4c2.7-3.1,4-7.1,3.6-11.2v-13.6c0.4-4.2-1-8.3-3.8-11.4c-3-2.4-6.8-3.6-10.6-3.4c-3.8-0.2-7.6,1-10.6,3.4
		c-2.9,3-4.3,7.2-3.9,11.4L476,190.1z"/>
	<path class="st0" d="M542.3,156.5c0.1-1.3,0.7-2.4,1.7-3.2c1.3-1,2.9-1.5,4.6-1.4h14.9c4.1-0.1,8.1,0.4,12,1.4c2.9,0.7,5.6,2,8,3.8
		c2,1.6,3.5,3.8,4.4,6.2c0.9,2.5,1.4,5.1,1.4,7.7v0.7c0.1,3-0.8,6-2.4,8.5c-2.2,2.8-5.3,4.8-8.7,5.7l11.7,22.1
		c0.8,1,0.9,2.3,0.3,3.4c-0.7,1.5-1.9,2.7-3.4,3.4c-1.4,0.7-3,0.9-4.5,0.5c-1.3-0.2-2.4-0.9-3.2-2L567.2,190c-0.6,0-1.2,0-1.8,0
		h-10.9V211c0,1.2-0.6,2.4-1.6,3.1c-1.3,0.9-2.8,1.4-4.4,1.3c-1.7,0.1-3.3-0.5-4.6-1.6c-1.1-0.8-1.7-2.1-1.7-3.4L542.3,156.5z
		 M554.6,161.7v18.8h8.8c3.5,0.3,7.1-0.5,10.2-2.2c1.9-1.3,3.1-3.4,3.1-5.7v-1.7c0.1-2.6-1-5-3.1-6.6c-3.1-1.8-6.6-2.7-10.2-2.4
		L554.6,161.7z"/>
	<path class="st0" d="M650.7,152.1c1.6-0.1,3.3,0.4,4.6,1.4c1,1,1.6,2.4,1.5,3.8c0,1.4-0.5,2.7-1.5,3.7c-1.3,1-2.9,1.5-4.6,1.4
		h-13.8V211c0,1.2-0.6,2.4-1.6,3.2c-1.2,1-2.8,1.5-4.4,1.4c-1.7,0.1-3.3-0.4-4.6-1.4c-1-0.7-1.6-1.9-1.7-3.2v-48.5h-12.5
		c-1.6,0.1-3.1-0.4-4.4-1.4c-1.1-0.9-1.7-2.3-1.6-3.7c-0.1-1.5,0.5-2.9,1.6-3.8c1.2-1,2.8-1.5,4.4-1.4H650.7z"/>
</g>
</svg>
