<svg xmlns="http://www.w3.org/2000/svg" xmlns:xlink="http://www.w3.org/1999/xlink" viewBox="0 0 496.3 447.36"><defs><style>.cls-1{isolation:isolate;}.cls-10,.cls-15,.cls-16,.cls-2,.cls-22,.cls-25,.cls-31,.cls-37,.cls-43,.cls-5{mix-blend-mode:multiply;}.cls-10,.cls-15,.cls-16,.cls-19,.cls-2,.cls-22,.cls-25,.cls-31,.cls-37,.cls-43{opacity:0.4;}.cls-2{fill:url(#radial-gradient);}.cls-3{fill:#b4b4b4;}.cls-4{fill:url(#linear-gradient);}.cls-12,.cls-5{fill:#d4d4d4;}.cls-5{opacity:0.54;}.cls-6{fill:url(#linear-gradient-2);}.cls-7{fill:url(#linear-gradient-3);}.cls-8{fill:url(#linear-gradient-4);}.cls-9{fill:url(#linear-gradient-5);}.cls-10{fill:url(#radial-gradient-2);}.cls-11{fill:#f3f3f3;}.cls-13{fill:url(#linear-gradient-6);}.cls-14{fill:url(#linear-gradient-7);}.cls-15{fill:url(#radial-gradient-3);}.cls-16{fill:url(#radial-gradient-4);}.cls-17{fill:url(#linear-gradient-8);}.cls-18{fill:url(#linear-gradient-9);}.cls-19,.cls-20{fill:#de3926;}.cls-20{opacity:0.5;}.cls-21{fill:none;stroke:#e1887f;stroke-miterlimit:10;stroke-width:0.77px;stroke-dasharray:3.38;}.cls-22{fill:url(#radial-gradient-5);}.cls-23{fill:url(#linear-gradient-10);}.cls-24{fill:url(#linear-gradient-11);}.cls-25{fill:url(#radial-gradient-6);}.cls-26{fill:url(#linear-gradient-12);}.cls-27{fill:url(#linear-gradient-13);}.cls-28{fill:url(#linear-gradient-14);}.cls-29{fill:url(#linear-gradient-15);}.cls-30{fill:url(#linear-gradient-16);}.cls-31{fill:url(#radial-gradient-7);}.cls-32{fill:url(#linear-gradient-17);}.cls-33{fill:url(#linear-gradient-18);}.cls-34{fill:url(#linear-gradient-19);}.cls-35{fill:url(#linear-gradient-20);}.cls-36{fill:url(#linear-gradient-21);}.cls-37{fill:url(#radial-gradient-8);}.cls-38{fill:url(#linear-gradient-22);}.cls-39{fill:url(#linear-gradient-23);}.cls-40{fill:url(#linear-gradient-24);}.cls-41{fill:url(#linear-gradient-25);}.cls-42{fill:url(#linear-gradient-26);}.cls-43{fill:url(#radial-gradient-9);}.cls-44{fill:url(#linear-gradient-27);}.cls-45{fill:url(#linear-gradient-28);}.cls-46{fill:url(#linear-gradient-29);}.cls-47{fill:url(#linear-gradient-30);}.cls-48{fill:url(#linear-gradient-31);}</style><radialGradient id="radial-gradient" cx="228.99" cy="299.61" r="26.97" gradientTransform="matrix(0.01, 1, -0.64, 0, 419.21, 69.59)" gradientUnits="userSpaceOnUse"><stop offset="0" stop-color="#836b6a"/><stop offset="0.03" stop-color="#989898"/><stop offset="1" stop-color="#fff"/></radialGradient><linearGradient id="linear-gradient" x1="216.4" y1="262.58" x2="276.63" y2="253.04" gradientUnits="userSpaceOnUse"><stop offset="0.15" stop-color="#e6e6e5"/><stop offset="1" stop-color="#989898"/></linearGradient><linearGradient id="linear-gradient-2" x1="212.68" y1="239.08" x2="272.9" y2="229.54" xlink:href="#linear-gradient"/><linearGradient id="linear-gradient-3" x1="209.71" y1="220.3" x2="269.93" y2="210.76" xlink:href="#linear-gradient"/><linearGradient id="linear-gradient-4" x1="13539.8" y1="298.3" x2="13544.78" y2="311.98" gradientTransform="translate(-13291.42)" xlink:href="#linear-gradient"/><linearGradient id="linear-gradient-5" x1="13534.64" y1="305.87" x2="13537.34" y2="313.3" gradientTransform="translate(-13291.42)" xlink:href="#linear-gradient"/><radialGradient id="radial-gradient-2" cx="134.46" cy="296.48" r="37.55" gradientTransform="translate(323.19 160.99) rotate(89.69) scale(1 0.64)" xlink:href="#radial-gradient"/><linearGradient id="linear-gradient-6" x1="12919.47" y1="283.12" x2="12925.76" y2="300.38" gradientTransform="translate(-12825.28)" xlink:href="#linear-gradient"/><linearGradient id="linear-gradient-7" x1="12912.96" y1="292.67" x2="12916.38" y2="302.05" gradientTransform="translate(-12825.28)" xlink:href="#linear-gradient"/><radialGradient id="radial-gradient-3" cx="69.59" cy="372.28" r="37.55" gradientTransform="translate(307.11 301.41) rotate(89.69) scale(1 0.64)" xlink:href="#radial-gradient"/><radialGradient id="radial-gradient-4" cx="163.24" cy="409.66" r="37.55" gradientTransform="translate(424.14 245.01) rotate(89.69) scale(1 0.64)" xlink:href="#radial-gradient"/><linearGradient id="linear-gradient-8" x1="12450.78" y1="400.96" x2="12457.07" y2="418.22" gradientTransform="translate(-12307.91)" xlink:href="#linear-gradient"/><linearGradient id="linear-gradient-9" x1="12444.27" y1="410.5" x2="12447.69" y2="419.88" gradientTransform="translate(-12307.91)" xlink:href="#linear-gradient"/><radialGradient id="radial-gradient-5" cx="313.31" cy="285.83" r="37.55" gradientTransform="translate(494.26 -28.47) rotate(89.69) scale(1 0.64)" xlink:href="#radial-gradient"/><linearGradient id="linear-gradient-10" x1="12600.86" y1="277.12" x2="12607.14" y2="294.38" gradientTransform="translate(-12307.91)" xlink:href="#linear-gradient"/><linearGradient id="linear-gradient-11" x1="12594.35" y1="286.67" x2="12597.76" y2="296.05" gradientTransform="translate(-12307.91)" xlink:href="#linear-gradient"/><radialGradient id="radial-gradient-6" cx="384.96" cy="278.58" r="26.97" gradientTransform="matrix(0.01, 1, -0.64, 0, 560.9, -107.35)" xlink:href="#radial-gradient"/><linearGradient id="linear-gradient-12" x1="372.38" y1="241.54" x2="432.6" y2="232" xlink:href="#linear-gradient"/><linearGradient id="linear-gradient-13" x1="368.66" y1="218.04" x2="428.88" y2="208.5" xlink:href="#linear-gradient"/><linearGradient id="linear-gradient-14" x1="365.68" y1="199.26" x2="425.9" y2="189.72" xlink:href="#linear-gradient"/><linearGradient id="linear-gradient-15" x1="13695.77" y1="277.26" x2="13700.75" y2="290.94" gradientTransform="translate(-13291.42)" xlink:href="#linear-gradient"/><linearGradient id="linear-gradient-16" x1="13690.61" y1="284.83" x2="13693.32" y2="292.26" gradientTransform="translate(-13291.42)" xlink:href="#linear-gradient"/><radialGradient id="radial-gradient-7" cx="286" cy="389.6" r="26.97" gradientTransform="matrix(0.01, 1, -0.64, 0, 533.42, 102.26)" xlink:href="#radial-gradient"/><linearGradient id="linear-gradient-17" x1="273.42" y1="352.57" x2="333.64" y2="343.03" xlink:href="#linear-gradient"/><linearGradient id="linear-gradient-18" x1="269.69" y1="329.07" x2="329.92" y2="319.53" xlink:href="#linear-gradient"/><linearGradient id="linear-gradient-19" x1="266.72" y1="310.29" x2="326.94" y2="300.75" xlink:href="#linear-gradient"/><linearGradient id="linear-gradient-20" x1="13596.81" y1="388.29" x2="13601.79" y2="401.97" gradientTransform="translate(-13291.42)" xlink:href="#linear-gradient"/><linearGradient id="linear-gradient-21" x1="13591.65" y1="395.86" x2="13594.36" y2="403.29" gradientTransform="translate(-13291.42)" xlink:href="#linear-gradient"/><radialGradient id="radial-gradient-8" cx="380.39" cy="423.79" r="37.55" gradientTransform="translate(649.15 41.94) rotate(89.69) scale(1 0.64)" xlink:href="#radial-gradient"/><linearGradient id="linear-gradient-22" x1="12667.94" y1="415.09" x2="12674.22" y2="432.35" gradientTransform="translate(-12307.91)" xlink:href="#linear-gradient"/><linearGradient id="linear-gradient-23" x1="12661.43" y1="424.63" x2="12664.84" y2="434.01" gradientTransform="translate(-12307.91)" xlink:href="#linear-gradient"/><linearGradient id="linear-gradient-24" x1="284.68" y1="5.38" x2="300.42" y2="48.64" gradientUnits="userSpaceOnUse"><stop offset="0.15" stop-color="#e6e6e5"/><stop offset="1" stop-color="#b4b4b4"/></linearGradient><linearGradient id="linear-gradient-25" x1="245.75" y1="2.34" x2="270.51" y2="70.37" xlink:href="#linear-gradient-24"/><linearGradient id="linear-gradient-26" x1="220.1" y1="39.96" x2="233.55" y2="76.92" xlink:href="#linear-gradient-24"/><radialGradient id="radial-gradient-9" cx="465.2" cy="369.11" r="26.97" gradientTransform="matrix(0.01, 1, -0.64, 0, 698.55, -97.37)" xlink:href="#radial-gradient"/><linearGradient id="linear-gradient-27" x1="452.62" y1="332.07" x2="512.84" y2="322.53" xlink:href="#linear-gradient"/><linearGradient id="linear-gradient-28" x1="448.9" y1="308.57" x2="509.12" y2="299.03" xlink:href="#linear-gradient"/><linearGradient id="linear-gradient-29" x1="445.92" y1="289.79" x2="506.14" y2="280.25" xlink:href="#linear-gradient"/><linearGradient id="linear-gradient-30" x1="13776.01" y1="367.79" x2="13780.99" y2="381.47" gradientTransform="translate(-13291.42)" xlink:href="#linear-gradient"/><linearGradient id="linear-gradient-31" x1="13770.85" y1="375.36" x2="13773.56" y2="382.79" gradientTransform="translate(-13291.42)" xlink:href="#linear-gradient"/></defs><g class="cls-1"><g id="Layer_2" data-name="Layer 2"><g id="Layer_1-2" data-name="Layer 1"><ellipse class="cls-2" cx="228.99" cy="299.61" rx="16.93" ry="29.32" transform="translate(-71.86 526.98) rotate(-89.69)"/><path class="cls-3" d="M232.57,299.21h0V280.78H225.4v18.43h0a1.7,1.7,0,0,0,1.05,1.61,5.61,5.61,0,0,0,5.08,0A1.71,1.71,0,0,0,232.57,299.21Z"/><path class="cls-4" d="M259,271.68a10.6,10.6,0,0,0-.81-1.79,13.3,13.3,0,0,0-1.43-2.11l-1.71-2.53-5.2-7.67-2.75-4-10-14.79-2.66-3.92-2.75-4.07L229.83,228l-4.63,6.78-3.77,5.52-8.92,13.08-.11.16-9.79,14.35a13.88,13.88,0,0,0-1,1.42c-3.58,6-1.18,13,7.19,17.83.82.47,1.67.91,2.56,1.32,11.73,5.39,28.8,5,39.59-1.25C258.27,283,261,277.13,259,271.68Z"/><path class="cls-5" d="M247.13,253.53l2.75,4a17.16,17.16,0,0,1-2.3,1.58c-8.17,4.71-21.45,4.69-29.67-.06a12.76,12.76,0,0,1-5.51-5.55,4.34,4.34,0,0,1-.17-.4c-1.51-3.91.35-8.15,5.59-11.17a22.05,22.05,0,0,1,3.61-1.67,34.37,34.37,0,0,1,15.67-1.57A27.89,27.89,0,0,1,247.48,242a16.44,16.44,0,0,1,2.81,2C251.55,247.26,250.49,250.72,247.13,253.53Z"/><path class="cls-6" d="M250.29,244a6.81,6.81,0,0,0-.49-1h0l-.06-.08a9.57,9.57,0,0,0-.92-1.36l-11-16.18-4.72-7-3.31-4.88-3.89,5.69-3,4.4-12.32,18.06a9.78,9.78,0,0,0-.6.88l0,.05h0c-2.07,3.46-1.32,7.37,2.24,10.54l.28.24a16.78,16.78,0,0,0,2.53,1.76c8.22,4.75,21.5,4.78,29.67.06a16.88,16.88,0,0,0,2.42-1.68C250.49,250.72,251.55,247.26,250.29,244Z"/><path class="cls-5" d="M237.86,225.38a6.35,6.35,0,0,1-1.16.86,12.7,12.7,0,0,1-11.47,0,4.55,4.55,0,0,1-2.29-2.6l3-4.4a13.11,13.11,0,0,1,7.2-.81Z"/><path class="cls-7" d="M237.55,219.68h0l-.05-.08a3.71,3.71,0,0,0-.28-.41l-7.39-10.9-7.47,10.94-.12.18-.08.12h0c-1,1.64-.34,3.53,1.94,4.85a12.7,12.7,0,0,0,11.47,0C237.78,223.12,238.44,221.29,237.55,219.68Z"/><path class="cls-8" d="M260.09,306.68c0,.17,0,.33,0,.49a4.67,4.67,0,0,1-2.54,3.14,13.89,13.89,0,0,1-12.54,0,4.6,4.6,0,0,1-2.61-3.38h0v-.55a8.85,8.85,0,0,1,17.69-.08C260.09,306.41,260.09,306.55,260.09,306.68Z"/><path class="cls-9" d="M249.59,310.42v0a2.41,2.41,0,0,1-1.4,1.95,7.53,7.53,0,0,1-6.81,0,2.42,2.42,0,0,1-1.42-2v0a4.82,4.82,0,0,1,9.63,0Z"/><ellipse class="cls-10" cx="134.46" cy="296.48" rx="23.56" ry="40.81" transform="translate(-162.74 429.32) rotate(-89.69)"/><path class="cls-3" d="M139.59,290.36a14.17,14.17,0,0,0-12.84,0c-3.55,2-3.55,5.36,0,7.41a14.17,14.17,0,0,0,12.84,0C143.14,295.72,143.14,292.4,139.59,290.36Z"/><rect class="cls-3" x="124.09" y="220.48" width="18.16" height="73.59"/><polygon class="cls-11" points="133.17 272.01 133.17 186.48 93.64 255.7 133.17 272.01"/><polygon class="cls-12" points="133.17 272.01 172.7 255.7 133.17 186.48 133.17 272.01"/><polygon class="cls-11" points="133.17 243.01 133.17 169.45 99.18 228.99 133.17 243.01"/><polygon class="cls-12" points="133.17 243.01 167.17 228.99 133.17 169.45 133.17 243.01"/><polygon class="cls-11" points="133.17 203.66 133.17 158 112.07 194.95 133.17 203.66"/><polygon class="cls-12" points="133.17 203.66 154.27 194.95 133.17 158 133.17 203.66"/><polygon class="cls-5" points="117.5 197.19 133.17 207.74 148.84 197.19 133.17 203.66 117.5 197.19"/><polygon class="cls-5" points="107.05 232.22 133.17 249.39 159.29 232.22 133.17 243 107.05 232.22"/><path class="cls-13" d="M109,293.69c0,.21,0,.42,0,.63a5.9,5.9,0,0,1-3.21,3.95c-4.36,2.52-11.44,2.51-15.82,0-2.06-1.18-3.16-2.71-3.29-4.26h0c0-.09,0-.19,0-.29s0-.27,0-.41a11.17,11.17,0,0,1,22.32-.09C109,293.35,109,293.52,109,293.69Z"/><path class="cls-14" d="M95.72,298.42v0A3,3,0,0,1,94,300.9a9.49,9.49,0,0,1-8.59,0,3.07,3.07,0,0,1-1.79-2.47v0a6.08,6.08,0,0,1,12.15,0Z"/><ellipse class="cls-15" cx="69.59" cy="372.28" rx="23.56" ry="40.81" transform="translate(-303.07 439.85) rotate(-89.69)"/><path class="cls-3" d="M74.72,366.16a14.17,14.17,0,0,0-12.84,0c-3.55,2-3.55,5.37,0,7.42a14.23,14.23,0,0,0,12.84,0C78.27,371.53,78.27,368.21,74.72,366.16Z"/><rect class="cls-3" x="59.22" y="296.28" width="18.16" height="73.59"/><polygon class="cls-11" points="68.3 347.82 68.3 236.11 28.77 326.51 68.3 347.82"/><polygon class="cls-12" points="68.3 347.82 107.83 326.51 68.3 236.11 68.3 347.82"/><polygon class="cls-11" points="68.3 309.95 68.3 213.87 34.3 291.63 68.3 309.95"/><polygon class="cls-12" points="68.3 309.95 102.3 291.63 68.3 213.87 68.3 309.95"/><polygon class="cls-11" points="68.3 258.55 68.3 198.93 47.2 247.18 68.3 258.55"/><polygon class="cls-12" points="68.3 258.55 89.4 247.18 68.3 198.93 68.3 258.55"/><polygon class="cls-5" points="52.63 250.11 68.3 263.88 83.97 250.11 68.3 258.55 52.63 250.11"/><polygon class="cls-5" points="42.18 295.85 68.3 318.28 94.42 295.85 68.3 309.93 42.18 295.85"/><ellipse class="cls-16" cx="163.24" cy="409.66" rx="23.56" ry="40.81" transform="translate(-247.3 570.68) rotate(-89.69)"/><path class="cls-3" d="M168.37,403.55a14.17,14.17,0,0,0-12.84,0c-3.54,2-3.54,5.36,0,7.41a14.17,14.17,0,0,0,12.84,0C171.92,408.91,171.92,405.59,168.37,403.55Z"/><rect class="cls-3" x="152.87" y="333.66" width="18.16" height="73.59"/><polygon class="cls-11" points="161.95 385.2 161.95 299.67 122.43 368.89 161.95 385.2"/><polygon class="cls-12" points="161.95 385.2 201.48 368.89 161.95 299.67 161.95 385.2"/><polygon class="cls-11" points="161.95 356.2 161.95 282.64 127.96 342.17 161.95 356.2"/><polygon class="cls-12" points="161.95 356.2 195.95 342.17 161.95 282.64 161.95 356.2"/><polygon class="cls-11" points="161.95 316.85 161.95 271.19 140.85 308.14 161.95 316.85"/><polygon class="cls-12" points="161.95 316.85 183.05 308.14 161.95 271.19 161.95 316.85"/><polygon class="cls-5" points="146.28 310.38 161.95 320.93 177.62 310.38 161.95 316.85 146.28 310.38"/><polygon class="cls-5" points="135.83 345.41 161.95 362.58 188.07 345.41 161.95 356.19 135.83 345.41"/><path class="cls-17" d="M157.66,411.53c0,.21,0,.42,0,.62a5.87,5.87,0,0,1-3.21,4c-4.35,2.52-11.44,2.5-15.82,0-2.05-1.18-3.15-2.71-3.29-4.26h0v-.29c0-.14,0-.27,0-.41a11.16,11.16,0,0,1,22.31-.1C157.65,411.19,157.66,411.36,157.66,411.53Z"/><path class="cls-18" d="M144.4,416.25v0a3,3,0,0,1-1.76,2.45,9.49,9.49,0,0,1-8.59,0,3.06,3.06,0,0,1-1.8-2.48v0a6.08,6.08,0,0,1,12.15,0Z"/><ellipse class="cls-19" cx="63.36" cy="291.57" rx="12.52" ry="21.69" transform="translate(-138.49 71.83) rotate(-30.31)"/><ellipse class="cls-19" cx="63.36" cy="291.57" rx="8.44" ry="14.62" transform="translate(-138.49 71.83) rotate(-30.31)"/><ellipse class="cls-20" cx="63.36" cy="291.57" rx="3.84" ry="6.65" transform="translate(-138.49 71.83) rotate(-30.31)"/><ellipse class="cls-19" cx="123.65" cy="233.49" rx="12.52" ry="21.69" transform="matrix(0.86, -0.5, 0.5, 0.86, -100.93, 94.32)"/><ellipse class="cls-19" cx="123.65" cy="233.49" rx="8.44" ry="14.62" transform="translate(-100.93 94.32) rotate(-30.31)"/><ellipse class="cls-20" cx="123.65" cy="233.49" rx="3.84" ry="6.65" transform="translate(-100.93 94.32) rotate(-30.31)"/><ellipse class="cls-19" cx="222.73" cy="373.83" rx="12.53" ry="21.69" transform="translate(-152.3 594.55) rotate(-89.69)"/><ellipse class="cls-19" cx="222.73" cy="373.83" rx="8.44" ry="14.62" transform="translate(-152.3 594.55) rotate(-89.69)"/><ellipse class="cls-20" cx="222.73" cy="373.83" rx="3.84" ry="6.65" transform="translate(-152.3 594.55) rotate(-89.69)"/><path class="cls-21" d="M278.13,29.73,256.82,42C238,52.92,222.66,79.3,222.66,101V373.64"/><path class="cls-21" d="M123.73,234.38V150.93c0-21.65,15.29-48,34.16-58.93l72.73-42"/><path class="cls-21" d="M63.29,291.6V186.1c0-21.65,15.29-48,34.16-58.92l72.72-42"/><path class="cls-11" d="M106.5,79.11c-9.17-1.8-14.56-7.19-16.36-16.36H88.77C87,71.92,81.59,77.31,72.42,79.11v1.37C81.59,82.27,87,87.66,88.77,96.83h1.37c1.8-9.17,7.19-14.56,16.36-16.35Z"/><path class="cls-11" d="M128.24,95c-5-1-7.86-3.88-8.83-8.83h-.73c-1,4.95-3.88,7.86-8.83,8.83v.73c5,1,7.86,3.88,8.83,8.83h.73c1-5,3.88-7.86,8.83-8.83Z"/><path class="cls-11" d="M389.81,116.76c-4.95-1-7.86-3.88-8.83-8.83h-.74c-1,4.95-3.88,7.86-8.83,8.83v.74c4.95,1,7.86,3.88,8.83,8.83H381c1-5,3.88-7.86,8.83-8.83Z"/><path class="cls-11" d="M18.39,189.73c-5-1-7.85-3.87-8.82-8.82H8.83c-1,5-3.88,7.85-8.83,8.82v.74c5,1,7.86,3.88,8.83,8.83h.74c1-5,3.87-7.86,8.82-8.83Z"/><ellipse class="cls-22" cx="313.31" cy="285.83" rx="23.56" ry="40.81" transform="translate(25.79 597.58) rotate(-89.69)"/><path class="cls-3" d="M318.45,279.71a14.19,14.19,0,0,0-12.85,0c-3.54,2-3.54,5.36,0,7.41a14.19,14.19,0,0,0,12.85,0C322,285.07,322,281.75,318.45,279.71Z"/><rect class="cls-3" x="302.94" y="209.83" width="18.16" height="73.59"/><polygon class="cls-11" points="312.02 261.36 312.02 175.83 272.5 245.05 312.02 261.36"/><polygon class="cls-12" points="312.02 261.36 351.55 245.05 312.02 175.83 312.02 261.36"/><polygon class="cls-11" points="312.02 232.36 312.02 158.8 278.03 218.34 312.02 232.36"/><polygon class="cls-12" points="312.02 232.36 346.02 218.34 312.02 158.8 312.02 232.36"/><polygon class="cls-11" points="312.02 193.01 312.02 147.35 290.93 184.3 312.02 193.01"/><polygon class="cls-12" points="312.02 193.01 333.13 184.3 312.02 147.35 312.02 193.01"/><polygon class="cls-5" points="296.36 186.54 312.02 197.09 327.69 186.54 312.02 193.01 296.36 186.54"/><polygon class="cls-5" points="285.9 221.57 312.02 238.74 338.15 221.57 312.02 232.35 285.9 221.57"/><path class="cls-23" d="M307.73,287.69c0,.21,0,.42,0,.63a5.85,5.85,0,0,1-3.21,3.95c-4.35,2.52-11.44,2.51-15.82,0-2.05-1.18-3.15-2.71-3.29-4.26h0v-.29c0-.13,0-.27,0-.41a11.17,11.17,0,0,1,22.32-.09C307.72,287.35,307.73,287.52,307.73,287.69Z"/><path class="cls-24" d="M294.47,292.42v0a3,3,0,0,1-1.76,2.45,9.49,9.49,0,0,1-8.59,0,3,3,0,0,1-1.79-2.47v0a6.07,6.07,0,0,1,12.14,0Z"/><ellipse class="cls-25" cx="384.96" cy="278.58" rx="16.93" ry="29.32" transform="translate(104.3 662.02) rotate(-89.69)"/><path class="cls-3" d="M388.54,278.17h0V259.74h-7.18v18.43h0a1.73,1.73,0,0,0,1.05,1.61,5.61,5.61,0,0,0,5.08,0A1.68,1.68,0,0,0,388.54,278.17Z"/><path class="cls-26" d="M415,250.64a10.46,10.46,0,0,0-.8-1.79,13.37,13.37,0,0,0-1.44-2.11l-1.7-2.52-5.2-7.67-2.75-4.06-10-14.79-2.66-3.92-2.76-4.06L385.8,207l-4.63,6.78-3.76,5.52-8.93,13.08-.11.16-9.79,14.35a13.87,13.87,0,0,0-1,1.43c-3.59,6-1.19,13,7.18,17.82.82.47,1.67.92,2.56,1.32,11.73,5.39,28.8,5,39.59-1.24C414.24,262,416.93,256.1,415,250.64Z"/><path class="cls-5" d="M403.11,232.49l2.75,4.06a18.86,18.86,0,0,1-2.3,1.57c-8.18,4.71-21.46,4.69-29.67-.05a12.8,12.8,0,0,1-5.52-5.56c-.06-.13-.12-.27-.17-.4-1.51-3.91.36-8.15,5.6-11.17a22.11,22.11,0,0,1,3.61-1.67,34.37,34.37,0,0,1,15.67-1.57A28,28,0,0,1,403.46,221a17.27,17.27,0,0,1,2.81,2C407.52,226.22,406.47,229.68,403.11,232.49Z"/><path class="cls-27" d="M406.27,223c-.14-.34-.31-.68-.49-1h0l-.06-.09a9.66,9.66,0,0,0-.93-1.36l-11-16.17-4.72-7-3.32-4.89-3.88,5.69-3,4.4-12.32,18.06a9.78,9.78,0,0,0-.6.88l0,0h0c-2.06,3.47-1.31,7.37,2.24,10.54l.28.24a17.34,17.34,0,0,0,2.53,1.77c8.22,4.74,21.5,4.77,29.67,0a16.22,16.22,0,0,0,2.43-1.68C406.47,229.68,407.52,226.22,406.27,223Z"/><path class="cls-5" d="M393.84,204.35a6.09,6.09,0,0,1-1.17.85,12.7,12.7,0,0,1-11.47,0,4.52,4.52,0,0,1-2.29-2.6l3-4.4a13,13,0,0,1,7.2-.8Z"/><path class="cls-28" d="M393.52,198.64h0l-.06-.08a3.32,3.32,0,0,0-.28-.41l-7.39-10.9-7.47,10.94-.12.18-.08.12h0c-1,1.64-.33,3.53,1.95,4.85a12.68,12.68,0,0,0,11.46,0C393.76,202.09,394.41,200.26,393.52,198.64Z"/><path class="cls-29" d="M416.07,285.64c0,.17,0,.33,0,.5a4.64,4.64,0,0,1-2.54,3.13,13.82,13.82,0,0,1-12.54,0,4.56,4.56,0,0,1-2.6-3.38h0a1.69,1.69,0,0,1,0-.23c0-.11,0-.21,0-.32a8.85,8.85,0,0,1,17.69-.08C416.06,285.37,416.07,285.51,416.07,285.64Z"/><path class="cls-30" d="M405.56,289.39v0a2.38,2.38,0,0,1-1.4,1.95,7.54,7.54,0,0,1-6.8,0,2.42,2.42,0,0,1-1.42-2v0a4.81,4.81,0,0,1,9.62,0Z"/><ellipse class="cls-31" cx="286" cy="389.6" rx="16.93" ry="29.32" transform="translate(-105.15 673.49) rotate(-89.69)"/><path class="cls-3" d="M289.58,389.2h0V370.77h-7.18V389.2h0a1.72,1.72,0,0,0,1.05,1.61,5.61,5.61,0,0,0,5.08,0A1.69,1.69,0,0,0,289.58,389.2Z"/><path class="cls-32" d="M316,361.67a10.6,10.6,0,0,0-.81-1.79,13.3,13.3,0,0,0-1.43-2.11l-1.7-2.53-5.21-7.67-2.75-4.05-10-14.79-2.65-3.92-2.76-4.07L286.84,318l-4.63,6.78-3.77,5.52-8.92,13.08-.11.16-9.79,14.35a13.88,13.88,0,0,0-1,1.42c-3.58,6-1.18,13,7.19,17.83.82.47,1.67.91,2.56,1.32,11.73,5.39,28.8,5,39.59-1.25C315.28,373,318,367.12,316,361.67Z"/><path class="cls-5" d="M304.14,343.52l2.75,4.05a16.51,16.51,0,0,1-2.3,1.57c-8.17,4.72-21.45,4.7-29.67-.05a12.76,12.76,0,0,1-5.51-5.55c-.06-.14-.12-.27-.17-.4-1.51-3.91.35-8.15,5.59-11.18a22.88,22.88,0,0,1,3.61-1.66,34.39,34.39,0,0,1,15.67-1.57A27.76,27.76,0,0,1,304.5,332a17.27,17.27,0,0,1,2.81,2C308.56,337.25,307.5,340.71,304.14,343.52Z"/><path class="cls-33" d="M307.31,334a9.55,9.55,0,0,0-.49-1h0l-.05-.08a11.42,11.42,0,0,0-.93-1.37l-11-16.17-4.72-7-3.31-4.88L283,309.21l-3,4.4-12.32,18.06a9.78,9.78,0,0,0-.6.88l0,.05h0c-2.06,3.46-1.32,7.37,2.24,10.54l.28.24a16.78,16.78,0,0,0,2.53,1.76c8.22,4.75,21.5,4.77,29.67.06a17.12,17.12,0,0,0,2.42-1.68C307.5,340.71,308.56,337.25,307.31,334Z"/><path class="cls-5" d="M294.87,315.37a6.35,6.35,0,0,1-1.16.86,12.7,12.7,0,0,1-11.47,0,4.55,4.55,0,0,1-2.29-2.6l3-4.4a13.06,13.06,0,0,1,7.19-.81Z"/><path class="cls-34" d="M294.56,309.67h0l-.05-.08a3.71,3.71,0,0,0-.28-.41l-7.39-10.9-7.47,10.94-.12.18-.08.12h0c-1,1.64-.33,3.53,1.94,4.85a12.7,12.7,0,0,0,11.47,0C294.8,313.11,295.45,311.28,294.56,309.67Z"/><path class="cls-35" d="M317.1,396.67c0,.17,0,.33,0,.49a4.69,4.69,0,0,1-2.54,3.14,13.89,13.89,0,0,1-12.54,0,4.6,4.6,0,0,1-2.61-3.38h0v-.23c0-.11,0-.22,0-.33a8.85,8.85,0,0,1,17.68-.07C317.1,396.4,317.1,396.54,317.1,396.67Z"/><path class="cls-36" d="M306.6,400.41v0a2.36,2.36,0,0,1-1.4,1.94,7.5,7.5,0,0,1-6.81,0,2.42,2.42,0,0,1-1.42-2v0a4.82,4.82,0,0,1,9.63,0Z"/><ellipse class="cls-37" cx="380.39" cy="423.79" rx="23.56" ry="40.81" transform="translate(-45.46 801.88) rotate(-89.69)"/><path class="cls-3" d="M385.53,417.68a14.19,14.19,0,0,0-12.85,0c-3.54,2-3.54,5.36,0,7.41a14.19,14.19,0,0,0,12.85,0C389.07,423,389.07,419.72,385.53,417.68Z"/><rect class="cls-3" x="370.02" y="347.79" width="18.16" height="73.59"/><polygon class="cls-11" points="379.1 399.33 379.1 313.8 339.58 383.02 379.1 399.33"/><polygon class="cls-12" points="379.1 399.33 418.63 383.02 379.1 313.8 379.1 399.33"/><polygon class="cls-11" points="379.1 370.33 379.1 296.77 345.11 356.31 379.1 370.33"/><polygon class="cls-12" points="379.1 370.33 413.1 356.31 379.1 296.77 379.1 370.33"/><polygon class="cls-11" points="379.1 330.98 379.1 285.32 358.01 322.27 379.1 330.98"/><polygon class="cls-12" points="379.1 330.98 400.2 322.27 379.1 285.32 379.1 330.98"/><polygon class="cls-5" points="363.44 324.51 379.1 335.06 394.77 324.51 379.1 330.98 363.44 324.51"/><polygon class="cls-5" points="352.98 359.54 379.1 376.71 405.23 359.54 379.1 370.32 352.98 359.54"/><path class="cls-38" d="M374.81,425.66c0,.21,0,.42,0,.62a5.84,5.84,0,0,1-3.21,4c-4.35,2.52-11.44,2.5-15.82,0-2.05-1.18-3.15-2.71-3.29-4.26h0v-.29c0-.14,0-.27,0-.41a11.17,11.17,0,0,1,22.32-.09C374.8,425.32,374.81,425.49,374.81,425.66Z"/><path class="cls-39" d="M361.55,430.38v0a3,3,0,0,1-1.76,2.45,9.49,9.49,0,0,1-8.59,0,3,3,0,0,1-1.79-2.48v0a6.07,6.07,0,0,1,12.14,0Z"/><path class="cls-21" d="M382.57,233.66V150.21c0-21.65-15.3-48-34.16-58.92l-72.73-42"/><path class="cls-21" d="M443,290.88V185.38c0-21.65-15.29-48-34.16-58.92l-72.73-42"/><path class="cls-40" d="M321.74,31.9c0,.17,0,.32,0,.49-.17,4-2.88,7.94-8.14,11-10.9,6.3-28.64,6.26-39.62-.07-5.17-3-7.92-6.83-8.24-10.73h0c0-.22,0-.44,0-.67s0-.65,0-1a28,28,0,0,1,56,1Z"/><path class="cls-41" d="M304,44c0,.82,0,1.63-.07,2.45-.89,5.69-5.1,11.24-12.64,15.59C274.12,72,246.21,71.92,228.94,62c-8.09-4.67-12.42-10.69-13-16.79h0c0-.38,0-.76,0-1.13,0-.55,0-1.09,0-1.63A44,44,0,0,1,303.94,42C304,42.68,304,43.35,304,44Z"/><path class="cls-42" d="M251.76,62.62v.13c0,3.51-2.33,7-7,9.68-9.32,5.38-24.47,5.35-33.84-.07-4.67-2.69-7-6.21-7.07-9.74v-.11a23.94,23.94,0,0,1,47.87.11Z"/><ellipse class="cls-19" cx="381.9" cy="232.71" rx="12.52" ry="21.69" transform="matrix(0.86, -0.5, 0.5, 0.86, -65.24, 224.55)"/><ellipse class="cls-19" cx="381.9" cy="232.71" rx="8.44" ry="14.62" transform="translate(-65.24 224.55) rotate(-30.31)"/><ellipse class="cls-20" cx="381.9" cy="232.71" rx="3.84" ry="6.65" transform="translate(-65.24 224.55) rotate(-30.31)"/><ellipse class="cls-19" cx="442.89" cy="289.75" rx="12.53" ry="21.69" transform="translate(150.75 731.07) rotate(-89.69)"/><ellipse class="cls-19" cx="442.89" cy="289.75" rx="8.44" ry="14.62" transform="translate(150.75 731.07) rotate(-89.69)"/><ellipse class="cls-20" cx="442.89" cy="289.75" rx="3.84" ry="6.65" transform="translate(150.75 731.07) rotate(-89.69)"/><ellipse class="cls-43" cx="465.2" cy="369.11" rx="16.93" ry="29.32" transform="translate(93.58 832.3) rotate(-89.69)"/><path class="cls-3" d="M468.78,368.7h0V350.27h-7.18V368.7h0a1.73,1.73,0,0,0,1.05,1.61,5.61,5.61,0,0,0,5.08,0A1.68,1.68,0,0,0,468.78,368.7Z"/><path class="cls-44" d="M495.24,341.17a10.91,10.91,0,0,0-.8-1.79,13.37,13.37,0,0,0-1.44-2.11l-1.7-2.52-5.21-7.67L483.35,323l-10-14.79-2.66-3.92-2.76-4.06L466,297.5l-4.63,6.78-3.76,5.52-8.93,13.08-.11.16-9.79,14.35a11.63,11.63,0,0,0-1,1.43c-3.59,6-1.19,13,7.18,17.82.82.47,1.67.91,2.56,1.32,11.73,5.39,28.8,5,39.59-1.24C494.48,352.5,497.17,346.63,495.24,341.17Z"/><path class="cls-5" d="M483.34,323l2.75,4.06a17.42,17.42,0,0,1-2.3,1.57c-8.17,4.71-21.45,4.69-29.66,0a12.8,12.8,0,0,1-5.52-5.56c-.06-.13-.12-.27-.17-.4-1.51-3.91.35-8.15,5.59-11.17a22.62,22.62,0,0,1,3.62-1.67,34.36,34.36,0,0,1,15.67-1.57,28,28,0,0,1,10.38,3.29,17.27,17.27,0,0,1,2.81,2C487.76,316.75,486.71,320.21,483.34,323Z"/><path class="cls-45" d="M486.51,313.52c-.14-.34-.31-.68-.49-1h0l0-.09a9.66,9.66,0,0,0-.93-1.36l-11-16.17-4.72-7L466,283l-3.88,5.69-3,4.4-12.32,18.06a9.78,9.78,0,0,0-.6.88l0,.05h0c-2.06,3.46-1.32,7.37,2.24,10.54l.28.24a18.14,18.14,0,0,0,2.53,1.77c8.22,4.74,21.5,4.77,29.67.05a15.62,15.62,0,0,0,2.42-1.68C486.71,320.21,487.76,316.75,486.51,313.52Z"/><path class="cls-5" d="M474.08,294.88a6.55,6.55,0,0,1-1.17.85,12.7,12.7,0,0,1-11.47,0,4.55,4.55,0,0,1-2.29-2.6l3-4.4a13,13,0,0,1,7.2-.8Z"/><path class="cls-46" d="M473.76,289.17h0l-.06-.08a2.71,2.71,0,0,0-.28-.41L466,277.78l-7.47,10.94-.12.18-.08.12h0c-1,1.64-.33,3.53,1.94,4.85a12.7,12.7,0,0,0,11.47,0C474,292.62,474.65,290.79,473.76,289.17Z"/><path class="cls-47" d="M496.3,376.17c0,.17,0,.33,0,.5a4.64,4.64,0,0,1-2.54,3.13,13.82,13.82,0,0,1-12.54,0,4.56,4.56,0,0,1-2.6-3.38h0a1.69,1.69,0,0,1,0-.23c0-.11,0-.21,0-.32a8.85,8.85,0,0,1,17.69-.08Z"/><path class="cls-48" d="M485.8,379.92v0a2.38,2.38,0,0,1-1.4,1.95,7.51,7.51,0,0,1-6.8,0,2.43,2.43,0,0,1-1.43-1.95v0a4.82,4.82,0,0,1,9.63,0Z"/></g></g></g></svg>