<svg xmlns="http://www.w3.org/2000/svg" viewBox="0 0 21.72 95.43"><defs><style>.cls-1{fill:#e0341d;fill-rule:evenodd;}</style></defs><g id="Layer_2" data-name="Layer 2"><g id="Layer_1-2" data-name="Layer 1"><path class="cls-1" d="M7.19,22.84,1.25,19.41A3,3,0,0,1,0,17V1.09C0,.17.56-.25,1.25.15L7.19,3.58A3,3,0,0,1,8.44,6V21.89C8.44,22.81,7.88,23.23,7.19,22.84Z"/><path class="cls-1" d="M20.47,30.5l-5.94-3.42a3,3,0,0,1-1.25-2.39V8.76c0-.92.56-1.34,1.25-.94l5.94,3.43a3,3,0,0,1,1.25,2.38V29.56C21.72,30.48,21.16,30.9,20.47,30.5Z"/><path class="cls-1" d="M7.19,55.22,1.25,51.8A3,3,0,0,1,0,49.41V33.48c0-.92.56-1.34,1.25-.94L7.19,36a3,3,0,0,1,1.25,2.38V54.28C8.44,55.2,7.88,55.62,7.19,55.22Z"/><path class="cls-1" d="M20.47,62.89l-5.94-3.43a3,3,0,0,1-1.25-2.38V41.15c0-.92.56-1.34,1.25-.94l5.94,3.43A3,3,0,0,1,21.72,46V62C21.72,62.87,21.16,63.29,20.47,62.89Z"/><path class="cls-1" d="M7.19,87.61,1.25,84.19A3,3,0,0,1,0,81.8V65.87c0-.92.56-1.34,1.25-.94l5.94,3.43a3,3,0,0,1,1.25,2.38V86.67C8.44,87.59,7.88,88,7.19,87.61Z"/><path class="cls-1" d="M20.47,95.28l-5.94-3.43a3,3,0,0,1-1.25-2.38V73.54c0-.92.56-1.34,1.25-.94L20.47,76a3,3,0,0,1,1.25,2.39V94.34C21.72,95.26,21.16,95.68,20.47,95.28Z"/></g></g></svg>