<svg xmlns="http://www.w3.org/2000/svg" xmlns:xlink="http://www.w3.org/1999/xlink" viewBox="0 0 155.86 376"><defs><style>.cls-1{isolation:isolate;}.cls-2,.cls-6{mix-blend-mode:multiply;}.cls-2{opacity:0.4;fill:url(#radial-gradient);}.cls-3{fill:#b3b3b3;}.cls-4{fill:#f2f2f2;}.cls-5,.cls-6{fill:#d4d4d4;}.cls-6{opacity:0.54;}</style><radialGradient id="radial-gradient" cx="77.93" cy="331.01" r="71.7" gradientTransform="matrix(0.01, 1, -0.64, 0, 289.03, 251.93)" gradientUnits="userSpaceOnUse"><stop offset="0" stop-color="#826a6a"/><stop offset="0.03" stop-color="#999"/><stop offset="1" stop-color="#fff"/></radialGradient></defs><g class="cls-1"><g id="Layer_2" data-name="Layer 2"><g id="Layer_1-2" data-name="Layer 1"><ellipse class="cls-2" cx="77.93" cy="331.01" rx="44.99" ry="77.93" transform="translate(-253.5 407.14) rotate(-89.69)"/><path class="cls-3" d="M87.73,319.32c-6.77-3.91-17.75-3.91-24.52,0s-6.77,10.25,0,14.16,17.75,3.91,24.52,0S94.5,323.23,87.73,319.32Z"/><rect class="cls-3" x="58.13" y="185.89" width="34.68" height="140.51"/><polygon class="cls-4" points="75.47 284.29 75.47 71 0 243.62 75.47 284.29"/><polygon class="cls-5" points="75.47 284.29 150.95 243.62 75.47 71 75.47 284.29"/><polygon class="cls-4" points="75.47 211.99 75.47 28.54 10.56 177 75.47 211.99"/><polygon class="cls-5" points="75.47 211.99 140.38 177 75.47 28.54 75.47 211.99"/><polygon class="cls-4" points="75.47 113.85 75.47 0 35.19 92.14 75.47 113.85"/><polygon class="cls-5" points="75.47 113.85 115.76 92.14 75.47 0 75.47 113.85"/><polygon class="cls-6" points="45.55 97.72 75.47 124.03 105.39 97.72 75.47 113.85 45.55 97.72"/><polygon class="cls-6" points="25.6 185.07 75.47 227.9 125.35 185.07 75.47 211.95 25.6 185.07"/></g></g></g></svg>