<svg xmlns="http://www.w3.org/2000/svg" xmlns:xlink="http://www.w3.org/1999/xlink" viewBox="0 0 347.11 225.16"><defs><style>.cls-1{fill:url(#linear-gradient);}.cls-2{fill:url(#linear-gradient-2);}.cls-3{fill:url(#linear-gradient-3);}</style><linearGradient id="linear-gradient" x1="237.96" y1="15.86" x2="284.33" y2="143.28" gradientUnits="userSpaceOnUse"><stop offset="0" stop-color="#fff"/><stop offset="0.32" stop-color="#efefef"/><stop offset="0.96" stop-color="#c6c6c6"/><stop offset="1" stop-color="#c3c3c3"/></linearGradient><linearGradient id="linear-gradient-2" x1="123.29" y1="6.9" x2="196.22" y2="207.27" xlink:href="#linear-gradient"/><linearGradient id="linear-gradient-3" x1="47.74" y1="117.71" x2="87.37" y2="226.58" xlink:href="#linear-gradient"/></defs><g id="Layer_2" data-name="Layer 2"><g id="Layer_1-2" data-name="Layer 1"><path class="cls-1" d="M347.11,94c0,.49,0,1,0,1.44-.49,11.75-8.47,23.41-24,32.36-32.12,18.56-84.38,18.46-116.72-.2-15.22-8.77-23.3-20.12-24.25-31.59v0c0-.67,0-1.32,0-2,0-1,0-1.92,0-2.87A82.5,82.5,0,0,1,347.11,94Z"/><path class="cls-2" d="M294.83,129.65c0,2.41-.07,4.83-.19,7.22-2.62,16.77-15,33.11-37.23,45.93-50.55,29.19-132.77,29-183.63-.33C49.94,168.7,37.19,151,35.6,133v0c0-1.12-.05-2.23-.05-3.34,0-1.61,0-3.19.1-4.78a129.63,129.63,0,0,1,259-1.11C294.78,125.7,294.83,127.69,294.83,129.65Z"/><path class="cls-3" d="M141,184.46v.36c0,10.33-6.87,20.65-20.49,28.51-27.45,15.85-72.07,15.77-99.69-.18C7.05,205.2.1,194.83,0,184.46v-.33a70.5,70.5,0,0,1,141,.33Z"/></g></g></svg>